<svg width="16" height="16" viewBox="0 0 16 16" fill="none" xmlns="http://www.w3.org/2000/svg">
<g clip-path="url(#clip0_1252_973)">
<path d="M7.24967 11.3337C7.24967 11.7479 7.58546 12.0837 7.99967 12.0837C8.41389 12.0837 8.74967 11.7479 8.74967 11.3337H7.99967H7.24967ZM9.91634 6.50033C9.91634 6.91454 10.2521 7.25033 10.6663 7.25033C11.0806 7.25033 11.4163 6.91454 11.4163 6.50033H10.6663H9.91634ZM4.58301 6.50033C4.58301 6.91454 4.91879 7.25033 5.33301 7.25033C5.74722 7.25033 6.08301 6.91454 6.08301 6.50033H5.33301H4.58301ZM10.4711 4.88395L11.0285 4.38223L11.0285 4.38223L10.4711 4.88395ZM6.33301 10.5837C5.91879 10.5837 5.58301 10.9194 5.58301 11.3337C5.58301 11.7479 5.91879 12.0837 6.33301 12.0837V11.3337V10.5837ZM9.99967 12.0837C10.4139 12.0837 10.7497 11.7479 10.7497 11.3337C10.7497 10.9194 10.4139 10.5837 9.99967 10.5837V11.3337V12.0837ZM6.66634 4.66699V5.41699H7.99967V4.66699V3.91699H6.66634V4.66699ZM7.99967 4.66699V5.41699H9.33301V4.66699V3.91699H7.99967V4.66699ZM7.99967 11.3337H8.74967V4.66699H7.99967H7.24967V11.3337H7.99967ZM10.6663 6.14847H9.91634V6.50033H10.6663H11.4163V6.14847H10.6663ZM5.33301 6.14847H4.58301V6.50033H5.33301H6.08301V6.14847H5.33301ZM9.33301 4.66699V5.41699C9.49324 5.41699 9.61928 5.41705 9.72752 5.42009C9.83612 5.42313 9.90621 5.42878 9.95371 5.43588C10.0002 5.44282 10.0042 5.44829 9.98746 5.44063C9.96447 5.43012 9.9361 5.41066 9.91361 5.38567L10.4711 4.88395L11.0285 4.38223C10.7728 4.09805 10.4555 3.99419 10.1753 3.95234C9.92558 3.91503 9.62379 3.91699 9.33301 3.91699V4.66699ZM10.6663 6.14847H11.4163C11.4163 5.81842 11.4176 5.50288 11.3865 5.24559C11.3537 4.97411 11.2741 4.65509 11.0285 4.38223L10.4711 4.88395L9.91361 5.38567C9.86329 5.32977 9.8814 5.29382 9.89736 5.42577C9.91505 5.5719 9.91634 5.78015 9.91634 6.14847H10.6663ZM6.66634 4.66699V3.91699C6.37556 3.91699 6.07377 3.91503 5.82402 3.95234C5.54389 3.99419 5.22656 4.09805 4.9708 4.38223L5.52827 4.88395L6.08574 5.38567C6.06325 5.41066 6.03488 5.43012 6.01189 5.44063C5.99514 5.44829 5.99917 5.44282 6.04564 5.43588C6.09314 5.42878 6.16322 5.42313 6.27183 5.42009C6.38006 5.41705 6.50611 5.41699 6.66634 5.41699V4.66699ZM5.33301 6.14847H6.08301C6.08301 5.78015 6.0843 5.5719 6.10198 5.42577C6.11795 5.29382 6.13606 5.32977 6.08574 5.38567L5.52827 4.88395L4.9708 4.38223C4.72522 4.65509 4.6457 4.97411 4.61285 5.24559C4.58171 5.50288 4.58301 5.81842 4.58301 6.14847H5.33301ZM6.33301 11.3337V12.0837H9.99967V11.3337V10.5837H6.33301V11.3337Z" fill="#0F1215"/>
<path d="M14.6663 7.99967C14.6663 11.1424 14.6663 12.7137 13.69 13.69C12.7137 14.6663 11.1424 14.6663 7.99967 14.6663C4.85698 14.6663 3.28563 14.6663 2.30932 13.69C1.33301 12.7137 1.33301 11.1424 1.33301 7.99967C1.33301 4.85698 1.33301 3.28563 2.30932 2.30932C3.28563 1.33301 4.85698 1.33301 7.99967 1.33301C11.1424 1.33301 12.7137 1.33301 13.69 2.30932C14.3392 2.95848 14.5567 3.87071 14.6296 5.33301" stroke="#0F1215" stroke-width="1.5" stroke-linecap="round"/>
</g>
<defs>
<clipPath id="clip0_1252_973">
<rect width="16" height="16" fill="white"/>
</clipPath>
</defs>
</svg>
